bw_sq_01
version=1
nRows=20
nColumns=46
inDegrees=yes
endheader
time	ground_force3_vx	ground_force3_vy	ground_force3_vz	ground_force3_px	ground_force3_py	ground_force3_pz	ground_torque3_x	ground_torque3_y	ground_torque3_z	ground_force5_vx	ground_force5_vy	ground_force5_vz	ground_force5_px	ground_force5_py	ground_force5_pz	ground_torque5_x	ground_torque5_y	ground_torque5_z	ground_force4_vx	ground_force4_vy	ground_force4_vz	ground_force4_px	ground_force4_py	ground_force4_pz	ground_torque4_x	ground_torque4_y	ground_torque4_z	ground_force1_vx	ground_force1_vy	ground_force1_vz	ground_force1_px	ground_force1_py	ground_force1_pz	ground_torque1_x	ground_torque1_y	ground_torque1_z	ground_force2_vx	ground_force2_vy	ground_force2_vz	ground_force2_px	ground_force2_py	ground_force2_pz	ground_torque2_x	ground_torque2_y	ground_torque2_z
0.000000	-0.000000	-0.000000	0.000000	0.200000	0.000000	-0.300000	0.000000	0.000000	-0.000000	5.071700	323.554443	20.181725	0.232605	0.000000	-1.319270	-0.000018	-0.142221	0.000002	-6.697015	333.716919	-21.447212	0.246455	0.000000	-1.052148	-0.000004	-0.302576	0.000004	-0.000000	-0.000000	0.000000	0.200000	0.000000	0.904000	0.000000	0.000000	-0.000000	-0.000000	-0.000000	0.000000	0.400000	0.000000	0.302000	0.000000	0.000000	-0.000000	
0.001000	-0.000000	-0.000000	0.000000	0.200000	0.000000	-0.300000	0.000000	0.000000	-0.000000	3.462628	320.045319	19.860317	0.231817	0.000000	-1.317652	0.000045	-0.471647	0.000001	-6.535973	334.675232	-22.250904	0.246374	0.000000	-1.053255	0.000037	-0.258516	0.000004	-0.000000	-0.000000	0.000000	0.200000	0.000000	0.904000	0.000000	0.000000	-0.000000	-0.000000	-0.000000	0.000000	0.400000	0.000000	0.302000	0.000000	0.000000	-0.000000	
0.002000	-0.000000	-0.000000	0.000000	0.200000	0.000000	-0.300000	0.000000	0.000000	-0.000000	4.590099	320.684113	19.860992	0.232304	0.000000	-1.316730	0.000009	-0.286802	0.000003	-7.347364	333.400391	-22.735565	0.246030	0.000000	-1.053170	0.000005	-0.277784	0.000007	-0.000000	-0.000000	0.000000	0.200000	0.000000	0.904000	0.000000	0.000000	-0.000000	-0.000000	-0.000000	0.000000	0.400000	0.000000	0.302000	0.000000	0.000000	-0.000000	
0.003000	-0.000000	-0.000000	0.000000	0.200000	0.000000	-0.300000	0.000000	0.000000	-0.000000	3.622822	321.005005	19.859978	0.232464	0.000000	-1.318094	0.000025	-0.398287	0.000004	-7.347364	332.112732	-22.574011	0.246837	0.000000	-1.053732	0.000020	-0.243501	0.000003	-0.000000	-0.000000	0.000000	0.200000	0.000000	0.904000	0.000000	0.000000	-0.000000	-0.000000	-0.000000	0.000000	0.400000	0.000000	0.302000	0.000000	0.000000	-0.000000	
0.004000	-0.000000	-0.000000	0.000000	0.200000	0.000000	-0.300000	0.000000	0.000000	-0.000000	4.106970	322.598755	19.377359	0.232468	0.000000	-1.318549	0.000047	-0.513582	0.000002	-7.020647	334.679291	-22.091389	0.246383	0.000000	-1.051980	0.000017	-0.227373	0.000004	-0.000000	-0.000000	0.000000	0.200000	0.000000	0.904000	0.000000	0.000000	-0.000000	-0.000000	-0.000000	0.000000	0.400000	0.000000	0.302000	0.000000	0.000000	-0.000000	
0.005000	-0.000000	-0.000000	0.000000	0.200000	0.000000	-0.300000	0.000000	0.000000	-0.000000	4.106461	321.323914	19.378038	0.232376	0.000000	-1.316330	-0.000002	-0.361280	0.000002	-6.861147	334.359741	-22.577072	0.246344	0.000000	-1.052013	0.000026	-0.423178	0.000003	-0.000000	-0.000000	0.000000	0.200000	0.000000	0.904000	0.000000	0.000000	-0.000000	-0.000000	-0.000000	0.000000	0.400000	0.000000	0.302000	0.000000	0.000000	-0.000000	
0.006000	-0.000000	-0.000000	0.000000	0.200000	0.000000	-0.300000	0.000000	0.000000	-0.000000	3.623332	323.234894	20.020512	0.232142	0.000000	-1.319290	0.000055	-0.484924	0.000001	-7.019102	333.398041	-22.575031	0.246293	0.000000	-1.053125	0.000026	-0.153968	0.000006	-0.000000	-0.000000	0.000000	0.200000	0.000000	0.904000	0.000000	0.000000	-0.000000	-0.000000	-0.000000	0.000000	0.400000	0.000000	0.302000	0.000000	0.000000	-0.000000	
0.007000	-0.000000	-0.000000	0.000000	0.200000	0.000000	-0.300000	0.000000	0.000000	-0.000000	4.266654	322.921997	19.860317	0.232978	0.000000	-1.319382	0.000057	-0.255933	0.000003	-6.698561	333.396362	-22.092409	0.246798	0.000000	-1.052588	0.000020	-0.365460	0.000002	-0.000000	-0.000000	0.000000	0.200000	0.000000	0.904000	0.000000	0.000000	-0.000000	-0.000000	-0.000000	0.000000	0.400000	0.000000	0.302000	0.000000	0.000000	-0.000000	
0.008000	-0.000000	-0.000000	0.000000	0.200000	0.000000	-0.300000	0.000000	0.000000	-0.000000	3.462628	323.555450	19.859640	0.232195	0.000000	-1.319755	0.000037	-0.563552	0.000005	-7.022190	333.398712	-22.092409	0.246537	0.000000	-1.052608	0.000029	-0.322659	0.000004	-0.000000	-0.000000	0.000000	0.200000	0.000000	0.904000	0.000000	0.000000	-0.000000	-0.000000	-0.000000	0.000000	0.400000	0.000000	0.302000	0.000000	0.000000	-0.000000	
0.009000	-0.000000	-0.000000	0.000000	0.200000	0.000000	-0.300000	0.000000	0.000000	-0.000000	4.428377	323.555115	19.378376	0.232312	0.000000	-1.318941	0.000014	-0.272736	0.000007	-6.537519	333.074799	-21.931875	0.246957	0.000000	-1.052920	0.000030	-0.443045	0.000003	-0.000000	-0.000000	0.000000	0.200000	0.000000	0.904000	0.000000	0.000000	-0.000000	-0.000000	-0.000000	0.000000	0.400000	0.000000	0.302000	0.000000	0.000000	-0.000000	
0.010000	-0.000000	-0.000000	0.000000	0.200000	0.000000	-0.300000	0.000000	0.000000	-0.000000	3.783526	320.690155	19.699106	0.233028	0.000000	-1.317254	-0.000001	-0.358274	0.000003	-7.347364	334.676575	-21.932896	0.246456	0.000000	-1.053609	0.000016	-0.398491	0.000004	-0.000000	-0.000000	0.000000	0.200000	0.000000	0.904000	0.000000	0.000000	-0.000000	-0.000000	-0.000000	0.000000	0.400000	0.000000	0.302000	0.000000	0.000000	-0.000000	
0.011000	-0.000000	-0.000000	0.000000	0.200000	0.000000	-0.300000	0.000000	0.000000	-0.000000	3.945757	322.283234	19.378376	0.232784	0.000000	-1.318128	0.000010	-0.400025	0.000002	-6.374931	334.355713	-22.415518	0.246338	0.000000	-1.053238	0.000017	-0.443708	0.000000	-0.000000	-0.000000	0.000000	0.200000	0.000000	0.904000	0.000000	0.000000	-0.000000	-0.000000	-0.000000	0.000000	0.400000	0.000000	0.302000	0.000000	0.000000	-0.000000	
0.012000	-0.000000	-0.000000	0.000000	0.200000	0.000000	-0.300000	0.000000	0.000000	-0.000000	4.267164	321.006012	20.021191	0.232740	0.000000	-1.316251	0.000036	-0.288095	0.000007	-7.022190	336.603363	-22.092409	0.245489	0.000000	-1.051517	0.000013	-0.353484	0.000001	-0.000000	-0.000000	0.000000	0.200000	0.000000	0.904000	0.000000	0.000000	-0.000000	-0.000000	-0.000000	0.000000	0.400000	0.000000	0.302000	0.000000	0.000000	-0.000000	
0.013000	-0.000000	-0.000000	0.000000	0.200000	0.000000	-0.300000	0.000000	0.000000	-0.000000	3.784035	321.967682	19.699106	0.233307	0.000000	-1.317661	0.000001	-0.429609	0.000006	-6.535973	335.314392	-21.930855	0.247071	0.000000	-1.050757	0.000020	-0.351578	0.000008	-0.000000	-0.000000	0.000000	0.200000	0.000000	0.904000	0.000000	0.000000	-0.000000	-0.000000	-0.000000	0.000000	0.400000	0.000000	0.302000	0.000000	0.000000	-0.000000	
0.014000	-0.000000	-0.000000	0.000000	0.200000	0.000000	-0.300000	0.000000	0.000000	-0.000000	4.427867	322.601807	19.377699	0.233324	0.000000	-1.317686	0.000006	-0.299617	0.000003	-7.669451	335.639313	-22.735565	0.246319	0.000000	-1.050993	0.000015	-0.174813	0.000007	-0.000000	-0.000000	0.000000	0.200000	0.000000	0.904000	0.000000	0.000000	-0.000000	-0.000000	-0.000000	0.000000	0.400000	0.000000	0.302000	0.000000	0.000000	-0.000000	
0.015000	-0.000000	-0.000000	0.000000	0.200000	0.000000	-0.300000	0.000000	0.000000	-0.000000	4.106461	321.964661	20.181049	0.232740	0.000000	-1.318457	0.000041	-0.461100	0.000005	-7.505318	335.641998	-22.090370	0.245944	0.000000	-1.050511	0.000025	-0.104909	0.000003	-0.000000	-0.000000	0.000000	0.200000	0.000000	0.904000	0.000000	0.000000	-0.000000	-0.000000	-0.000000	0.000000	0.400000	0.000000	0.302000	0.000000	0.000000	-0.000000	
0.016000	-0.000000	-0.000000	0.000000	0.200000	0.000000	-0.300000	0.000000	0.000000	-0.000000	3.300397	323.881317	20.020851	0.233051	0.000000	-1.318852	-0.000011	-0.393895	0.000008	-7.023733	334.357727	-22.252943	0.246226	0.000000	-1.053634	0.000013	-0.360150	0.000005	-0.000000	-0.000000	0.000000	0.200000	0.000000	0.904000	0.000000	0.000000	-0.000000	-0.000000	-0.000000	0.000000	0.400000	0.000000	0.302000	0.000000	0.000000	-0.000000	
0.017000	-0.000000	-0.000000	0.000000	0.200000	0.000000	-0.300000	0.000000	0.000000	-0.000000	4.266654	323.558472	19.699106	0.232905	0.000000	-1.318918	0.000007	-0.305074	0.000003	-7.022190	335.962555	-22.091389	0.245539	0.000000	-1.052241	-0.000001	-0.308689	0.000002	-0.000000	-0.000000	0.000000	0.200000	0.000000	0.904000	0.000000	0.000000	-0.000000	-0.000000	-0.000000	0.000000	0.400000	0.000000	0.302000	0.000000	0.000000	-0.000000	
0.018000	-0.000000	-0.000000	0.000000	0.200000	0.000000	-0.300000	0.000000	0.000000	-0.000000	4.106461	321.646454	19.859640	0.233075	0.000000	-1.317637	0.000042	-0.453907	0.000006	-7.667904	333.718933	-22.415518	0.246286	0.000000	-1.052729	0.000007	-0.189737	0.000003	-0.000000	-0.000000	0.000000	0.200000	0.000000	0.904000	0.000000	0.000000	-0.000000	-0.000000	-0.000000	0.000000	0.400000	0.000000	0.302000	0.000000	0.000000	-0.000000	
0.019000	-0.000000	-0.000000	0.000000	0.200000	0.000000	-0.300000	0.000000	0.000000	-0.000000	4.267673	322.601807	19.860657	0.233509	0.000000	-1.317611	-0.000009	-0.348940	-0.000001	-6.698561	334.036804	-22.254984	0.246313	0.000000	-1.051923	0.000032	-0.431138	0.000003	-0.000000	-0.000000	0.000000	0.200000	0.000000	0.904000	0.000000	0.000000	-0.000000	-0.000000	-0.000000	0.000000	0.400000	0.000000	0.302000	0.000000	0.000000	-0.000000	
